# xmcd CD database file
#
# Track frame offsets:
#	150
#	44411
#	79516
#	112627
#	144096
#	165757
#	207959
#	230794
#	252092
#
# Disc length: 3776 seconds
#
# Revision: 0
# Processed by: cddbd v1.5.2PL0 Copyright (c) Steve Scherf et al.
# Submitted via: CDex 1.70beta2
#
DISCID=620ebe09
DTITLE=Rory Stuart Quartet - So Rise Up
DYEAR=2004
DGENRE=Jazz
TTITLE0=Experiment #2
TTITLE1=Exhilarate
TTITLE2=Synechdoche in Schenectady
TTITLE3=Falling Angel
TTITLE4=Unexpected Path
TTITLE5=Lembranças
TTITLE6=Pensive
TTITLE7=The Same Old Same Old
TTITLE8=So Rise Up
EXTD=YEAR: 2004
EXTT0=
EXTT1=
EXTT2=
EXTT3=
EXTT4=
EXTT5=
EXTT6=
EXTT7=
EXTT8=
PLAYORDER=
